<?xml version="1.0" encoding="UTF-8" standalone="no"?>
<!DOCTYPE svg PUBLIC "-//W3C//DTD SVG 1.1//EN" "http://www.w3.org/Graphics/SVG/1.1/DTD/svg11.dtd">
<svg width="100%" height="100%" viewBox="0 0 1024 1024" version="1.1" xmlns="http://www.w3.org/2000/svg" xmlns:xlink="http://www.w3.org/1999/xlink" xml:space="preserve" xmlns:serif="http://www.serif.com/" style="fill-rule:evenodd;clip-rule:evenodd;stroke-linecap:round;stroke-linejoin:round;stroke-miterlimit:1.5;">
    <rect id="Artboard1" x="0" y="0" width="1024" height="1024" style="fill:none;"/>
    <g id="Artboard11" serif:id="Artboard1">
        <g transform="matrix(2.24152,0,0,2.24152,-241.041,-563.861)">
            <g transform="matrix(0.707107,0.707107,-0.707107,0.707107,284.257,41.0135)">
                <path d="M452.006,468.968C453.151,469.417 453.816,470.616 453.588,471.825C453.361,473.033 452.306,473.909 451.077,473.911C431.397,473.947 406.484,473.983 406.484,473.983C387.659,474.011 369.596,466.552 356.276,453.251C342.955,439.95 335.47,421.898 335.47,403.073C335.47,341.351 335.47,261.729 335.47,261.518C335.47,261.518 335.47,261.518 335.47,261.518C335.47,261.518 335.471,261.518 335.471,261.518C354.431,261.518 372.615,269.05 386.022,282.457C399.429,295.864 406.961,314.048 406.961,333.008L406.961,403.3C407.015,422.042 414.826,440.003 428.093,453.251C434.98,460.128 443.134,465.443 452.006,468.968Z" style="fill:url(#_Linear1);stroke:white;stroke-width:0.45px;"/>
            </g>
            <path d="M330.102,470.467C332.188,467.613 334.485,464.888 336.976,462.314C353.269,445.476 369.976,429.041 386.679,412.61C399.894,399.319 407.071,381.095 407.057,362.346C407.053,356.761 406.39,351.245 405.112,345.9C404.506,343.399 405.637,340.8 407.881,339.54C410.124,338.279 412.932,338.664 414.754,340.482C422.23,347.916 429.658,355.398 436.998,362.967C450.105,376.483 457.826,394.19 457.84,413.129C457.854,431.369 450.716,448.489 438.49,461.816L438.516,461.842L437.811,462.546C437.567,462.806 437.32,463.065 437.071,463.322C425.009,475.789 412.654,487.969 400.255,500.103L392.568,507.79C391.141,509.422 389.926,510.627 388.878,511.479L387.321,513.036C359.8,540.557 315.18,540.557 287.659,513.036C287.658,513.035 287.658,513.035 287.658,513.035L330.102,470.467Z" style="fill:url(#_Linear2);stroke:white;stroke-opacity:0;stroke-width:0.45px;"/>
            <path d="M265.216,460.566L265.213,460.672L265.203,461.105L265.201,461.207L265.194,461.63L265.193,461.669L265.189,462.125L265.188,462.225L265.187,462.616C265.187,462.486 265.188,462.355 265.188,462.225L265.188,462.177L265.189,462.125C265.19,461.973 265.191,461.821 265.193,461.669L265.198,461.363L265.201,461.207L265.202,461.144L265.203,461.105C265.206,460.961 265.209,460.816 265.213,460.672L265.214,460.628L265.216,460.566C265.22,460.415 265.225,460.264 265.23,460.114L265.216,460.566ZM267.162,479.182C267.403,480.181 267.665,481.175 267.949,482.159L267.993,482.312C267.993,482.312 268.132,482.784 268.132,482.784L268.133,482.791L268.167,482.901L268.274,483.256L268.277,483.268L268.319,483.403L268.419,483.727L268.425,483.745L268.471,483.89L268.568,484.197L268.576,484.221L268.624,484.371L268.72,484.665L268.73,484.695L268.78,484.848L268.875,485.133L268.882,485.155L268.887,485.169L268.939,485.322L269.033,485.599L269.042,485.624L269.048,485.641L269.101,485.795L269.195,486.064L269.205,486.093L269.212,486.112L269.266,486.265L269.36,486.528L269.372,486.56L269.379,486.582L269.435,486.734L269.528,486.991L269.541,487.027L269.55,487.05L269.606,487.202L269.699,487.452L269.714,487.491L269.723,487.517L269.781,487.668L269.873,487.913L269.89,487.955L269.901,487.983L269.959,488.133L270.051,488.372L270.069,488.417L270.081,488.448L270.14,488.596L270.232,488.83L270.252,488.879L270.265,488.912L270.324,489.058L270.416,489.286L270.437,489.338L270.452,489.374L270.511,489.518L270.603,489.741L270.626,489.797L270.642,489.835L270.702,489.977L270.793,490.195L270.818,490.254L270.835,490.294L270.895,490.435L270.987,490.648L271.013,490.71L271.032,490.752L271.092,490.891L271.183,491.099L271.212,491.164L271.231,491.209L271.292,491.346L271.383,491.549L271.413,491.617L271.435,491.664L271.496,491.799L271.586,491.998L271.618,492.068L271.641,492.118L271.702,492.251L271.791,492.445L271.826,492.519L271.85,492.571L271.912,492.701L272.001,492.891L272.037,492.967L272.063,493.022L272.124,493.15L272.213,493.335L272.251,493.414L272.279,493.471L272.34,493.597L272.428,493.778L272.469,493.86L272.498,493.919L272.559,494.043L272.646,494.219L272.689,494.304L272.72,494.366L272.781,494.487L272.868,494.659L272.913,494.747L272.945,494.811L273.006,494.93L273.092,495.097L273.14,495.188L273.174,495.254L273.235,495.371L273.32,495.534L273.37,495.628L273.405,495.696L273.466,495.811L273.551,495.97L273.603,496.066L273.64,496.137L273.701,496.249L273.784,496.404L273.839,496.503L273.878,496.576L273.938,496.685L274.021,496.836L274.078,496.938L274.119,497.013L274.179,497.12L274.261,497.267L274.32,497.371L274.363,497.448L274.423,497.553L274.504,497.696L274.565,497.803L274.611,497.882L274.67,497.984L274.75,498.123L274.814,498.233L274.861,498.314L274.92,498.414L274.998,498.549L275.065,498.661L275.114,498.745L275.173,498.842L275.25,498.973L275.32,499.088L275.371,499.174L275.429,499.269L275.505,499.396L275.577,499.513L275.631,499.601L275.688,499.693L275.763,499.817L275.838,499.936L275.893,500.027L275.95,500.116L276.024,500.236L276.101,500.358L276.159,500.45L276.215,500.537L276.288,500.653L276.368,500.778L276.428,500.872L276.483,500.957L276.555,501.069L276.638,501.196L276.7,501.292L276.754,501.375L276.825,501.483L276.91,501.612L276.975,501.711L277.028,501.791L277.098,501.895L277.186,502.027L277.253,502.127L277.306,502.205L277.374,502.306L277.465,502.439L277.534,502.542L277.586,502.617L277.652,502.714L277.746,502.85L277.818,502.955L277.869,503.027L277.934,503.121L278.031,503.259L278.105,503.366L278.155,503.436L278.219,503.526L278.318,503.666L278.395,503.775L278.444,503.843L278.506,503.93L278.609,504.071L278.689,504.182L278.737,504.248L278.797,504.331L278.902,504.474L278.985,504.587L279.032,504.65L279.09,504.73L279.199,504.876L279.284,504.99L279.33,505.051L279.387,505.128L279.498,505.275L279.586,505.392L279.631,505.45L279.686,505.523L279.8,505.672L279.891,505.791L279.935,505.848L279.988,505.917L280.105,506.067L280.199,506.188L280.242,506.243L280.293,506.309L280.413,506.461L280.51,506.584L280.552,506.636L280.601,506.699L280.724,506.852L280.824,506.977L280.864,507.027L280.912,507.086L281.037,507.241L281.141,507.368L281.18,507.416L281.226,507.472L281.354,507.627L281.461,507.758L281.499,507.803L281.542,507.856L281.673,508.012L281.784,508.145L281.82,508.188L281.862,508.238L281.995,508.394L282.109,508.53L282.145,508.571L282.184,508.617L282.319,508.774L282.438,508.913L282.472,508.952L282.509,508.995L282.646,509.152L282.769,509.294L282.802,509.331L282.837,509.371L282.976,509.528L283.104,509.672L283.136,509.708L283.168,509.744L283.441,510.049L283.136,509.708L282.976,509.528L282.802,509.331L282.646,509.152L282.472,508.952L282.319,508.774L282.145,508.571L281.995,508.394L281.82,508.188L281.673,508.012L281.499,507.803L281.354,507.627L281.18,507.416L281.037,507.241L280.864,507.027L280.724,506.852L280.552,506.636L280.413,506.461L280.242,506.243L280.105,506.067L279.935,505.848L279.8,505.672L279.631,505.45L279.498,505.275L279.33,505.051L279.199,504.876L279.032,504.65L278.902,504.474L278.737,504.248L278.609,504.071L278.444,503.843L278.318,503.666L278.155,503.436L278.031,503.259L277.869,503.027L277.746,502.85L277.586,502.617L277.465,502.439L277.306,502.205L277.186,502.027L277.028,501.791L276.91,501.612L276.754,501.375L276.638,501.196L276.483,500.957L276.368,500.778L276.215,500.537L276.101,500.358L275.95,500.116L275.838,499.936L275.688,499.693L275.577,499.513L275.429,499.269L275.32,499.088L275.173,498.842L275.065,498.661L274.92,498.414L274.814,498.233L274.67,497.984L274.565,497.803L274.423,497.553L274.32,497.371L274.179,497.12L274.078,496.938L273.938,496.685L273.839,496.503L273.701,496.249L273.603,496.066L273.466,495.811L273.37,495.628L273.235,495.371L273.14,495.188L273.006,494.93L272.913,494.747L272.781,494.487L272.689,494.304L272.559,494.043L272.469,493.86L272.34,493.597L272.251,493.414L272.124,493.15L272.037,492.967L271.912,492.701L271.826,492.519L271.702,492.251L271.618,492.068L271.496,491.799L271.413,491.617L271.292,491.346L271.212,491.164L271.092,490.891L271.013,490.71L270.895,490.435L270.818,490.254L270.702,489.977L270.626,489.797L270.511,489.518L270.437,489.338L270.324,489.058L270.252,488.879L270.14,488.596L270.069,488.417L269.959,488.133L269.89,487.955L269.781,487.668L269.714,487.491L269.606,487.202L269.541,487.027L269.435,486.734L269.372,486.56L269.266,486.265L269.205,486.093L269.101,485.795L269.042,485.624L268.939,485.322L268.882,485.155L268.78,484.848L268.726,484.684L268.624,484.371L268.573,484.212L268.471,483.89L268.423,483.738L268.319,483.403L268.276,483.264L268.167,482.901L268.133,482.788L267.993,482.312C267.993,482.312 267.949,482.159 267.949,482.159C267.701,481.297 267.469,480.429 267.253,479.556L267.162,479.182ZM267.003,478.506L266.879,477.96C266.838,477.778 266.799,477.596 266.76,477.414C266.631,476.815 266.511,476.216 266.398,475.614L266.325,475.215L266.319,475.185L266.315,475.158L266.292,475.029L266.261,474.858L266.252,474.808L266.234,474.702L266.21,474.565L266.199,474.502L266.184,474.412L266.156,474.245L266.144,474.172C266.123,474.044 266.102,473.916 266.081,473.788C266.029,473.463 265.979,473.136 265.931,472.808L265.873,472.405L265.846,472.203L265.818,472.002L265.788,471.768L265.765,471.598L265.749,471.469L265.736,471.369L265.718,471.212L265.666,470.789L265.62,470.39L265.62,470.384C265.605,470.25 265.59,470.117 265.576,469.983L265.539,469.623L265.536,469.586L265.534,469.572L265.527,469.496L265.502,469.242L265.498,469.19L265.495,469.166L265.488,469.081L265.467,468.861L265.461,468.793L265.458,468.759L265.451,468.673L265.434,468.479L265.428,468.395L265.424,468.352L265.417,468.269L265.403,468.097L265.396,467.997L265.392,467.944L265.386,467.866L265.375,467.715L265.366,467.599L265.362,467.536L265.357,467.465L265.348,467.332L265.339,467.2L265.334,467.128L265.33,467.064L265.323,466.949L265.314,466.801L265.309,466.719L265.306,466.663L265.3,466.566L265.291,466.4L265.286,466.311L265.284,466.263L265.28,466.183L265.271,465.998L265.266,465.901L265.264,465.863L265.261,465.799L265.252,465.594L265.248,465.492L265.247,465.462L265.245,465.415L265.236,465.186L265.232,465.082L265.231,465.062L265.23,465.031L265.222,464.764L265.219,464.672L265.218,464.662C265.214,464.528 265.211,464.395 265.208,464.261C265.201,463.988 265.196,463.714 265.193,463.439L265.193,463.439C265.191,463.302 265.19,463.165 265.189,463.028L265.193,463.439L265.199,463.85L265.208,464.261L265.218,464.662L265.222,464.764L265.231,465.062L265.236,465.186L265.247,465.462L265.252,465.594L265.264,465.863L265.271,465.998L265.284,466.263L265.291,466.4L265.306,466.663L265.314,466.801L265.33,467.064L265.339,467.2L265.357,467.465L265.366,467.599L265.386,467.866L265.396,467.997L265.417,468.269L265.428,468.395L265.451,468.673L265.461,468.793L265.488,469.081L265.498,469.19L265.527,469.496L265.536,469.586L265.571,469.935L265.576,469.983L265.62,470.384L265.62,470.39L265.718,471.212L265.749,471.469L265.788,471.768L265.846,472.203L265.931,472.808C265.979,473.135 266.029,473.461 266.081,473.788L266.144,474.172L266.184,474.412L266.21,474.565L266.252,474.808L266.292,475.029L266.319,475.185L266.398,475.614C266.511,476.216 266.632,476.816 266.76,477.414C266.838,477.779 266.919,478.143 267.003,478.506ZM265.259,459.389C265.294,458.597 265.343,457.806 265.405,457.015C265.419,456.841 265.433,456.666 265.448,456.492L265.495,455.967C265.462,456.316 265.432,456.666 265.405,457.015C265.334,457.917 265.28,458.822 265.244,459.729L265.259,459.389ZM265.663,454.368C265.729,453.796 265.803,453.226 265.883,452.657L265.933,452.311C265.95,452.195 265.967,452.08 265.984,451.964C266.824,446.41 268.318,440.996 270.421,435.83C273.882,427.329 278.993,419.503 285.551,412.84C278.992,419.503 273.881,427.33 270.421,435.83C268.318,440.996 266.824,446.41 265.984,451.964C265.967,452.08 265.949,452.196 265.932,452.311L265.883,452.657C265.776,453.415 265.681,454.176 265.599,454.939L265.663,454.368ZM336.995,463.782C364.516,491.303 364.669,536.094 337.148,563.615L337.11,563.573L331.798,568.34C304.277,595.861 259.454,595.74 231.933,568.219C231.933,568.219 236.156,563.505 236.156,563.505C242.891,556.673 245.407,554.375 252.144,547.543C263.515,536.014 275.088,524.787 286.464,513.258L286.567,513.165L235.247,461.996C221.917,448.705 214.418,430.658 214.405,411.834C214.391,393.009 221.863,374.952 235.174,361.641C271.862,324.953 317.494,279.321 331.196,265.618C332.221,264.593 333.612,264.018 335.062,264.018C336.511,264.018 337.902,264.594 338.927,265.62C338.927,265.619 338.927,265.619 338.927,265.619C352.334,279.026 356.208,293.138 356.208,312.098C356.208,331.058 348.676,349.242 335.269,362.649C310.348,387.571 285.566,412.353 285.566,412.353L336.995,463.782Z" style="fill:url(#_Linear3);stroke:white;stroke-width:0.45px;"/>
            <g transform="matrix(0.707107,0.707107,-0.707107,0.707107,283.24,-160.358)">
                <path d="M474.541,473.883C451.856,474.103 429.167,474.323 406.484,473.983C387.676,473.702 369.568,466.85 356.149,453.45C342.553,440.301 335.231,421.655 335.143,403.39C334.923,358.055 334.186,312.02 335.178,266.294C335.198,265.361 335.245,264.429 335.309,263.498C335.385,262.388 336.331,261.541 337.442,261.588C340.859,261.728 347.893,262.087 351.874,262.81C365.566,265.299 376.377,272.812 386.022,282.457C399.507,295.942 406.649,314.05 406.961,333.008C407.346,356.435 407.154,379.87 406.961,403.3C407.015,422.042 414.826,440.003 428.093,453.251C440.524,465.664 457.085,472.988 474.541,473.883Z" style="fill:url(#_Linear4);stroke:white;stroke-width:0.45px;"/>
            </g>
        </g>
    </g>
    <defs>
        <linearGradient id="_Linear1" x1="0" y1="0" x2="1" y2="0" gradientUnits="userSpaceOnUse" gradientTransform="matrix(-66.6257,-55.9749,55.9749,-66.6257,417.237,456.235)"><stop offset="0" style="stop-color:rgb(75,145,241);stop-opacity:1"/><stop offset="1" style="stop-color:rgb(169,229,255);stop-opacity:1"/></linearGradient>
        <linearGradient id="_Linear2" x1="0" y1="0" x2="1" y2="0" gradientUnits="userSpaceOnUse" gradientTransform="matrix(10.7981,-123.754,123.754,10.7981,378.52,513.461)"><stop offset="0" style="stop-color:rgb(0,195,230);stop-opacity:1"/><stop offset="1" style="stop-color:rgb(140,240,255);stop-opacity:1"/></linearGradient>
        <linearGradient id="_Linear3" x1="0" y1="0" x2="1" y2="0" gradientUnits="userSpaceOnUse" gradientTransform="matrix(3.53806,-160.089,160.089,3.53806,279.697,568.641)"><stop offset="0" style="stop-color:rgb(114,169,245);stop-opacity:1"/><stop offset="1" style="stop-color:rgb(66,240,255);stop-opacity:1"/></linearGradient>
        <linearGradient id="_Linear4" x1="0" y1="0" x2="1" y2="0" gradientUnits="userSpaceOnUse" gradientTransform="matrix(-20.9566,-150.978,150.978,-20.9566,381.718,447.251)"><stop offset="0" style="stop-color:rgb(114,211,254);stop-opacity:1"/><stop offset="1" style="stop-color:rgb(66,240,255);stop-opacity:1"/></linearGradient>
    </defs>
</svg>
